<mxfile host="app.diagrams.net" modified="2022-05-07T15:51:23.033Z" agent="5.0 (Windows NT 10.0; Win64; x64) AppleWebKit/537.36 (KHTML, like Gecko) Chrome/99.0.4844.84 Safari/537.36" etag="1XqRS5PdybBHWb5jN-ky" version="18.0.2" type="github">
  <diagram id="kgpKYQtTHZ0yAKxKKP6v" name="Page-1">
    <mxGraphModel dx="1205" dy="621" grid="1" gridSize="10" guides="1" tooltips="1" connect="1" arrows="1" fold="1" page="1" pageScale="1" pageWidth="850" pageHeight="1100" math="0" shadow="0">
      <root>
        <mxCell id="0" />
        <mxCell id="1" parent="0" />
        <mxCell id="3nuBFxr9cyL0pnOWT2aG-1" value="教育系统前端" style="shape=umlLifeline;perimeter=lifelinePerimeter;container=1;collapsible=0;recursiveResize=0;rounded=0;shadow=0;strokeWidth=1;" parent="1" vertex="1">
          <mxGeometry x="400" y="80" width="100" height="800" as="geometry" />
        </mxCell>
        <mxCell id="oVSgsAehM8C2ECb2NVZM-11" value="" style="html=1;points=[];perimeter=orthogonalPerimeter;" vertex="1" parent="3nuBFxr9cyL0pnOWT2aG-1">
          <mxGeometry x="45" y="50" width="10" height="110" as="geometry" />
        </mxCell>
        <mxCell id="oVSgsAehM8C2ECb2NVZM-13" value="" style="html=1;points=[];perimeter=orthogonalPerimeter;" vertex="1" parent="3nuBFxr9cyL0pnOWT2aG-1">
          <mxGeometry x="45" y="190" width="10" height="70" as="geometry" />
        </mxCell>
        <mxCell id="oVSgsAehM8C2ECb2NVZM-18" value="" style="html=1;points=[];perimeter=orthogonalPerimeter;" vertex="1" parent="3nuBFxr9cyL0pnOWT2aG-1">
          <mxGeometry x="45" y="280" width="10" height="40" as="geometry" />
        </mxCell>
        <mxCell id="oVSgsAehM8C2ECb2NVZM-19" value="校验手机号格式" style="edgeStyle=orthogonalEdgeStyle;html=1;align=left;spacingLeft=2;endArrow=block;rounded=0;entryX=1;entryY=0;" edge="1" target="oVSgsAehM8C2ECb2NVZM-18" parent="3nuBFxr9cyL0pnOWT2aG-1">
          <mxGeometry relative="1" as="geometry">
            <mxPoint x="45" y="260" as="sourcePoint" />
            <Array as="points">
              <mxPoint x="55" y="260" />
              <mxPoint x="55" y="240" />
              <mxPoint x="75" y="240" />
              <mxPoint x="75" y="280" />
            </Array>
          </mxGeometry>
        </mxCell>
        <mxCell id="oVSgsAehM8C2ECb2NVZM-48" value="" style="html=1;points=[];perimeter=orthogonalPerimeter;" vertex="1" parent="3nuBFxr9cyL0pnOWT2aG-1">
          <mxGeometry x="45" y="510" width="10" height="70" as="geometry" />
        </mxCell>
        <mxCell id="oVSgsAehM8C2ECb2NVZM-53" value="" style="html=1;points=[];perimeter=orthogonalPerimeter;" vertex="1" parent="3nuBFxr9cyL0pnOWT2aG-1">
          <mxGeometry x="45" y="590" width="10" height="40" as="geometry" />
        </mxCell>
        <mxCell id="oVSgsAehM8C2ECb2NVZM-54" value="信息校验" style="edgeStyle=orthogonalEdgeStyle;html=1;align=left;spacingLeft=2;endArrow=block;rounded=0;entryX=1;entryY=0;exitX=1;exitY=0.857;exitDx=0;exitDy=0;exitPerimeter=0;" edge="1" target="oVSgsAehM8C2ECb2NVZM-53" parent="3nuBFxr9cyL0pnOWT2aG-1" source="oVSgsAehM8C2ECb2NVZM-48">
          <mxGeometry relative="1" as="geometry">
            <mxPoint x="60" y="570" as="sourcePoint" />
            <Array as="points">
              <mxPoint x="80" y="570" />
              <mxPoint x="80" y="590" />
            </Array>
          </mxGeometry>
        </mxCell>
        <mxCell id="oVSgsAehM8C2ECb2NVZM-56" value="注册信息" style="html=1;verticalAlign=bottom;endArrow=block;rounded=0;" edge="1" parent="3nuBFxr9cyL0pnOWT2aG-1" target="3nuBFxr9cyL0pnOWT2aG-5">
          <mxGeometry width="80" relative="1" as="geometry">
            <mxPoint x="50" y="620" as="sourcePoint" />
            <mxPoint x="130" y="620" as="targetPoint" />
          </mxGeometry>
        </mxCell>
        <mxCell id="oVSgsAehM8C2ECb2NVZM-66" value="" style="html=1;points=[];perimeter=orthogonalPerimeter;" vertex="1" parent="3nuBFxr9cyL0pnOWT2aG-1">
          <mxGeometry x="45" y="690" width="10" height="80" as="geometry" />
        </mxCell>
        <mxCell id="3nuBFxr9cyL0pnOWT2aG-5" value="后台系统" style="shape=umlLifeline;perimeter=lifelinePerimeter;container=1;collapsible=0;recursiveResize=0;rounded=0;shadow=0;strokeWidth=1;" parent="1" vertex="1">
          <mxGeometry x="620" y="80" width="110" height="800" as="geometry" />
        </mxCell>
        <mxCell id="oVSgsAehM8C2ECb2NVZM-20" value="" style="html=1;points=[];perimeter=orthogonalPerimeter;" vertex="1" parent="3nuBFxr9cyL0pnOWT2aG-5">
          <mxGeometry x="50" y="300" width="10" height="60" as="geometry" />
        </mxCell>
        <mxCell id="oVSgsAehM8C2ECb2NVZM-31" value="" style="html=1;points=[];perimeter=orthogonalPerimeter;" vertex="1" parent="3nuBFxr9cyL0pnOWT2aG-5">
          <mxGeometry x="50" y="370" width="10" height="40" as="geometry" />
        </mxCell>
        <mxCell id="oVSgsAehM8C2ECb2NVZM-32" value="校验手机号" style="edgeStyle=orthogonalEdgeStyle;html=1;align=left;spacingLeft=2;endArrow=block;rounded=0;entryX=1;entryY=0;" edge="1" target="oVSgsAehM8C2ECb2NVZM-31" parent="3nuBFxr9cyL0pnOWT2aG-5">
          <mxGeometry relative="1" as="geometry">
            <mxPoint x="60" y="350" as="sourcePoint" />
            <Array as="points">
              <mxPoint x="85" y="350" />
            </Array>
          </mxGeometry>
        </mxCell>
        <mxCell id="oVSgsAehM8C2ECb2NVZM-37" value="查询手机号" style="html=1;verticalAlign=bottom;endArrow=block;rounded=0;" edge="1" parent="3nuBFxr9cyL0pnOWT2aG-5" target="oVSgsAehM8C2ECb2NVZM-5">
          <mxGeometry width="80" relative="1" as="geometry">
            <mxPoint x="60" y="329.5" as="sourcePoint" />
            <mxPoint x="140" y="329.5" as="targetPoint" />
          </mxGeometry>
        </mxCell>
        <mxCell id="oVSgsAehM8C2ECb2NVZM-42" value="" style="html=1;points=[];perimeter=orthogonalPerimeter;" vertex="1" parent="3nuBFxr9cyL0pnOWT2aG-5">
          <mxGeometry x="50" y="420" width="10" height="40" as="geometry" />
        </mxCell>
        <mxCell id="oVSgsAehM8C2ECb2NVZM-43" value="生成短信验证码" style="edgeStyle=orthogonalEdgeStyle;html=1;align=left;spacingLeft=2;endArrow=block;rounded=0;entryX=1;entryY=0;" edge="1" target="oVSgsAehM8C2ECb2NVZM-42" parent="3nuBFxr9cyL0pnOWT2aG-5">
          <mxGeometry relative="1" as="geometry">
            <mxPoint x="60" y="400" as="sourcePoint" />
            <Array as="points">
              <mxPoint x="85" y="400" />
            </Array>
          </mxGeometry>
        </mxCell>
        <mxCell id="oVSgsAehM8C2ECb2NVZM-55" value="" style="html=1;points=[];perimeter=orthogonalPerimeter;" vertex="1" parent="3nuBFxr9cyL0pnOWT2aG-5">
          <mxGeometry x="50" y="610" width="10" height="40" as="geometry" />
        </mxCell>
        <mxCell id="oVSgsAehM8C2ECb2NVZM-57" value="" style="html=1;points=[];perimeter=orthogonalPerimeter;" vertex="1" parent="3nuBFxr9cyL0pnOWT2aG-5">
          <mxGeometry x="50" y="660" width="10" height="70" as="geometry" />
        </mxCell>
        <mxCell id="oVSgsAehM8C2ECb2NVZM-58" value="验证码校验" style="edgeStyle=orthogonalEdgeStyle;html=1;align=left;spacingLeft=2;endArrow=block;rounded=0;entryX=1;entryY=0;" edge="1" target="oVSgsAehM8C2ECb2NVZM-57" parent="3nuBFxr9cyL0pnOWT2aG-5">
          <mxGeometry relative="1" as="geometry">
            <mxPoint x="60" y="640" as="sourcePoint" />
            <Array as="points">
              <mxPoint x="85" y="640" />
            </Array>
          </mxGeometry>
        </mxCell>
        <mxCell id="oVSgsAehM8C2ECb2NVZM-59" value="写入数据库&lt;span style=&quot;white-space: pre;&quot;&gt;	&lt;/span&gt;" style="html=1;verticalAlign=bottom;endArrow=block;rounded=0;entryX=0;entryY=0.155;entryDx=0;entryDy=0;entryPerimeter=0;" edge="1" parent="3nuBFxr9cyL0pnOWT2aG-5" target="oVSgsAehM8C2ECb2NVZM-60">
          <mxGeometry width="80" relative="1" as="geometry">
            <mxPoint x="60" y="690" as="sourcePoint" />
            <mxPoint x="140" y="690" as="targetPoint" />
          </mxGeometry>
        </mxCell>
        <mxCell id="oVSgsAehM8C2ECb2NVZM-3" value="学生" style="shape=umlLifeline;perimeter=lifelinePerimeter;whiteSpace=wrap;html=1;container=1;collapsible=0;recursiveResize=0;outlineConnect=0;" vertex="1" parent="1">
          <mxGeometry x="180" y="80" width="100" height="830" as="geometry" />
        </mxCell>
        <mxCell id="oVSgsAehM8C2ECb2NVZM-9" value="用户访问注册界面" style="html=1;verticalAlign=bottom;startArrow=oval;startFill=1;endArrow=block;startSize=8;rounded=0;entryX=0.086;entryY=0.183;entryDx=0;entryDy=0;entryPerimeter=0;" edge="1" parent="oVSgsAehM8C2ECb2NVZM-3" target="oVSgsAehM8C2ECb2NVZM-11">
          <mxGeometry width="60" relative="1" as="geometry">
            <mxPoint x="50" y="70" as="sourcePoint" />
            <mxPoint x="260" y="70" as="targetPoint" />
          </mxGeometry>
        </mxCell>
        <mxCell id="oVSgsAehM8C2ECb2NVZM-10" value="" style="html=1;points=[];perimeter=orthogonalPerimeter;" vertex="1" parent="oVSgsAehM8C2ECb2NVZM-3">
          <mxGeometry x="45" y="50" width="10" height="770" as="geometry" />
        </mxCell>
        <mxCell id="oVSgsAehM8C2ECb2NVZM-36" value="输入手机号和昵称" style="html=1;verticalAlign=bottom;endArrow=block;rounded=0;" edge="1" parent="oVSgsAehM8C2ECb2NVZM-3" target="3nuBFxr9cyL0pnOWT2aG-1">
          <mxGeometry width="80" relative="1" as="geometry">
            <mxPoint x="50" y="210" as="sourcePoint" />
            <mxPoint x="130" y="210" as="targetPoint" />
          </mxGeometry>
        </mxCell>
        <mxCell id="oVSgsAehM8C2ECb2NVZM-47" value="输入短信验证码和密码" style="html=1;verticalAlign=bottom;endArrow=block;rounded=0;" edge="1" parent="oVSgsAehM8C2ECb2NVZM-3" target="oVSgsAehM8C2ECb2NVZM-48">
          <mxGeometry width="80" relative="1" as="geometry">
            <mxPoint x="50" y="540" as="sourcePoint" />
            <mxPoint x="190" y="550" as="targetPoint" />
          </mxGeometry>
        </mxCell>
        <mxCell id="oVSgsAehM8C2ECb2NVZM-4" value="" style="shape=umlActor;verticalLabelPosition=bottom;verticalAlign=top;html=1;" vertex="1" parent="1">
          <mxGeometry x="215" y="20" width="30" height="60" as="geometry" />
        </mxCell>
        <mxCell id="oVSgsAehM8C2ECb2NVZM-5" value="数据库" style="shape=umlLifeline;perimeter=lifelinePerimeter;whiteSpace=wrap;html=1;container=1;collapsible=0;recursiveResize=0;outlineConnect=0;" vertex="1" parent="1">
          <mxGeometry x="840" y="80" width="80" height="820" as="geometry" />
        </mxCell>
        <mxCell id="oVSgsAehM8C2ECb2NVZM-40" value="" style="html=1;points=[];perimeter=orthogonalPerimeter;" vertex="1" parent="oVSgsAehM8C2ECb2NVZM-5">
          <mxGeometry x="35" y="330" width="10" height="90" as="geometry" />
        </mxCell>
        <mxCell id="oVSgsAehM8C2ECb2NVZM-41" value="查询数据" style="edgeStyle=orthogonalEdgeStyle;html=1;align=left;spacingLeft=2;endArrow=block;rounded=0;entryX=1.143;entryY=0.675;entryDx=0;entryDy=0;entryPerimeter=0;exitX=0.914;exitY=0.306;exitDx=0;exitDy=0;exitPerimeter=0;" edge="1" target="oVSgsAehM8C2ECb2NVZM-40" parent="oVSgsAehM8C2ECb2NVZM-5" source="oVSgsAehM8C2ECb2NVZM-40">
          <mxGeometry x="0.0388" y="10" relative="1" as="geometry">
            <mxPoint x="35" y="310" as="sourcePoint" />
            <Array as="points">
              <mxPoint x="80" y="358" />
              <mxPoint x="80" y="391" />
            </Array>
            <mxPoint as="offset" />
          </mxGeometry>
        </mxCell>
        <mxCell id="oVSgsAehM8C2ECb2NVZM-60" value="" style="html=1;points=[];perimeter=orthogonalPerimeter;" vertex="1" parent="oVSgsAehM8C2ECb2NVZM-5">
          <mxGeometry x="35" y="680" width="10" height="60" as="geometry" />
        </mxCell>
        <mxCell id="oVSgsAehM8C2ECb2NVZM-61" value="" style="html=1;points=[];perimeter=orthogonalPerimeter;" vertex="1" parent="oVSgsAehM8C2ECb2NVZM-5">
          <mxGeometry x="35" y="750" width="10" height="40" as="geometry" />
        </mxCell>
        <mxCell id="oVSgsAehM8C2ECb2NVZM-62" value="保存数据" style="edgeStyle=orthogonalEdgeStyle;html=1;align=left;spacingLeft=2;endArrow=block;rounded=0;entryX=1;entryY=0;exitX=1.029;exitY=0.864;exitDx=0;exitDy=0;exitPerimeter=0;" edge="1" target="oVSgsAehM8C2ECb2NVZM-61" parent="oVSgsAehM8C2ECb2NVZM-5" source="oVSgsAehM8C2ECb2NVZM-60">
          <mxGeometry relative="1" as="geometry">
            <mxPoint x="50" y="730" as="sourcePoint" />
            <Array as="points">
              <mxPoint x="45" y="730" />
              <mxPoint x="70" y="730" />
              <mxPoint x="70" y="750" />
            </Array>
          </mxGeometry>
        </mxCell>
        <mxCell id="oVSgsAehM8C2ECb2NVZM-6" value=":Object" style="shape=umlLifeline;perimeter=lifelinePerimeter;whiteSpace=wrap;html=1;container=1;collapsible=0;recursiveResize=0;outlineConnect=0;" vertex="1" parent="1">
          <mxGeometry x="1060" y="80" width="120" height="800" as="geometry" />
        </mxCell>
        <mxCell id="oVSgsAehM8C2ECb2NVZM-45" value="" style="html=1;points=[];perimeter=orthogonalPerimeter;" vertex="1" parent="oVSgsAehM8C2ECb2NVZM-6">
          <mxGeometry x="55" y="430" width="10" height="80" as="geometry" />
        </mxCell>
        <mxCell id="oVSgsAehM8C2ECb2NVZM-34" value="请求后台" style="html=1;verticalAlign=bottom;endArrow=block;rounded=0;" edge="1" parent="1">
          <mxGeometry width="80" relative="1" as="geometry">
            <mxPoint x="455" y="390" as="sourcePoint" />
            <mxPoint x="670" y="390" as="targetPoint" />
          </mxGeometry>
        </mxCell>
        <mxCell id="oVSgsAehM8C2ECb2NVZM-44" value="通知短信平台发送验证码" style="html=1;verticalAlign=bottom;endArrow=block;rounded=0;" edge="1" parent="1" target="oVSgsAehM8C2ECb2NVZM-6">
          <mxGeometry width="80" relative="1" as="geometry">
            <mxPoint x="680" y="530" as="sourcePoint" />
            <mxPoint x="760" y="530" as="targetPoint" />
          </mxGeometry>
        </mxCell>
        <mxCell id="oVSgsAehM8C2ECb2NVZM-46" value="发送短信验证码" style="html=1;verticalAlign=bottom;endArrow=open;dashed=1;endSize=8;rounded=0;" edge="1" parent="1" target="oVSgsAehM8C2ECb2NVZM-3">
          <mxGeometry relative="1" as="geometry">
            <mxPoint x="1110" y="570" as="sourcePoint" />
            <mxPoint x="1030" y="570" as="targetPoint" />
          </mxGeometry>
        </mxCell>
        <mxCell id="oVSgsAehM8C2ECb2NVZM-63" value="return" style="html=1;verticalAlign=bottom;endArrow=open;dashed=1;endSize=8;rounded=0;" edge="1" parent="1">
          <mxGeometry relative="1" as="geometry">
            <mxPoint x="850" y="400" as="sourcePoint" />
            <mxPoint x="770" y="400" as="targetPoint" />
          </mxGeometry>
        </mxCell>
        <mxCell id="oVSgsAehM8C2ECb2NVZM-64" value="返回注册成功信息" style="html=1;verticalAlign=bottom;endArrow=open;dashed=1;endSize=8;rounded=0;" edge="1" parent="1" target="3nuBFxr9cyL0pnOWT2aG-1">
          <mxGeometry relative="1" as="geometry">
            <mxPoint x="670" y="790" as="sourcePoint" />
            <mxPoint x="590" y="790" as="targetPoint" />
          </mxGeometry>
        </mxCell>
        <mxCell id="oVSgsAehM8C2ECb2NVZM-65" value="Text" style="edgeLabel;html=1;align=center;verticalAlign=middle;resizable=0;points=[];" vertex="1" connectable="0" parent="oVSgsAehM8C2ECb2NVZM-64">
          <mxGeometry x="-0.1098" y="3" relative="1" as="geometry">
            <mxPoint as="offset" />
          </mxGeometry>
        </mxCell>
        <mxCell id="oVSgsAehM8C2ECb2NVZM-67" value="return" style="html=1;verticalAlign=bottom;endArrow=open;dashed=1;endSize=8;rounded=0;" edge="1" parent="1">
          <mxGeometry relative="1" as="geometry">
            <mxPoint x="850" y="700" as="sourcePoint" />
            <mxPoint x="770" y="700" as="targetPoint" />
          </mxGeometry>
        </mxCell>
        <mxCell id="oVSgsAehM8C2ECb2NVZM-68" value="显示注册成功信息" style="html=1;verticalAlign=bottom;endArrow=open;dashed=1;endSize=8;rounded=0;" edge="1" parent="1" target="oVSgsAehM8C2ECb2NVZM-3">
          <mxGeometry relative="1" as="geometry">
            <mxPoint x="450" y="820" as="sourcePoint" />
            <mxPoint x="370" y="820" as="targetPoint" />
          </mxGeometry>
        </mxCell>
      </root>
    </mxGraphModel>
  </diagram>
</mxfile>
